<svg xmlns="http://www.w3.org/2000/svg" viewBox="0 0 941 229.55"><defs><style>.cls-1{fill:#262b36}.cls-2{fill:#d9544f}</style></defs><g id="Layer_2" data-name="Layer 2"><g id="Layer_1-2" data-name="Layer 1"><path class="cls-1" d="M299.77 108.48q0-5.24-6.09-8a26.89 26.89 0 0 0-10.83-2.07h-47.36v54.18h47.36a28.68 28.68 0 0 0 10.59-1.83q6.33-2.68 6.33-7.67t-6.33-7.79a27.66 27.66 0 0 0-10.59-1.95H244v-14.52h38.84a25.58 25.58 0 0 0 10.83-2.19q6.09-2.8 6.09-8.16m14 34.45a20.27 20.27 0 0 1-2.67 10.07q-8 14-30.44 14H221V83.89h59.65q21.31 0 29.83 13.27a21.51 21.51 0 0 1 3.29 11.44q0 10.4-8.77 17.4 8.77 6.83 8.77 16.94zM433.22 167.16l-46.65-75q-5-8.15-9-8.16t-8.89 8.16l-45.69 75h18.61l36.33-60.39 36.68 60.39zM518.54 125.89q0-12.05-7.73-19.72t-19.66-7.67h-32.5v54.18h32.51q11.93 0 19.66-7.43t7.73-19.36m14.45-1.22q0 18.38-11.81 30.44t-30.07 12.05h-46.84V84h46.87q18.38 0 30.13 11.2T533 124.67zM637.61 167.16h-52.84q-18.14 0-30-12.05t-11.87-30.44q0-18.26 11.75-29.46T584.77 84h47v14.5h-47q-11.93 0-19.66 7.67t-7.73 19.72q0 11.93 7.73 19.36t19.66 7.43h38.35v-18.15h-39.44v-13.26h53.93z"/><path class="cls-2" d="M832 129.79q0 20.09-12.05 29.34-10.59 8-31.41 8h-5q-20.82 0-31.41-8-12.05-9.25-12.05-29.34V84h14.49v45.78q0 15 10.35 19.84 6.7 3 23.62 3 14.12 0 20.7-4.26 8.28-5.36 8.28-18.63V66.22h-10l17.27-34.52 17.26 34.53H832zM941 114q0 13.63-10 22-9.25 7.79-23.25 7.79h-36.63v-14.37h39a17.65 17.65 0 0 0 12.05-4.26 14.3 14.3 0 0 0 4.83-11.32 13.94 13.94 0 0 0-4.87-11.2 18 18 0 0 0-12.05-4.14H862.6v68.67h-14.49V84h59.66q14 0 23.25 7.91 10 8.28 10 22"/><path class="cls-1" d="M650.48 84.01h74.33V98.5h-74.33zM650.48 152.68h74.33v14.49h-74.33zM650.48 118.34h74.33v14.49h-74.33z"/><path d="M139.07 66.82a82.13 82.13 0 0 1 37.48 68.89h.07v11.69h-.07a82.1 82.1 0 0 1-82.07 82.08v.07-.07a82.09 82.09 0 0 1-82.1-82.08h-.07l.38-128.62C11.41 11 5.89 9.29 0 8V0h49.86v147.4h-.07a45 45 0 0 0 44.67 44.67V192v.07a45 45 0 0 0 44.67-44.67h-.07z" fill-rule="evenodd" fill="#d9544f"/><path d="M113.55 147.21a19.15 19.15 0 0 1-19.09 19.09 19.15 19.15 0 0 1-19.09-19.09V64.73H57.55l36.92-33 36.92 33h-17.84v82.48z" fill-rule="evenodd" fill="#262b36"/></g></g></svg>
